<svg id="Layer_1" height="512" viewBox="0 0 512 512" width="512" xmlns="http://www.w3.org/2000/svg" data-name="Layer 1"><path d="m113.39 214.12c.32-21.6 4.39-41.95 13.38-61.18 26.12-55.87 84.23-88.11 146.31-81.13 58.92 6.63 107.92 51.34 121.36 111.03.9 4 2.44 5.88 6.34 7.19 43.87 14.79 71.41 55.33 68.76 100.84-2.54 44.39-35.01 81.69-79.54 91.13a100.61 100.61 0 0 1 -19.86 2 13.65 13.65 0 0 1 -14.18-13.75c-.16-8 5-14 13.49-14.33 25.45-1.14 46.05-11.15 60.23-32.68 26.8-40.72 4.79-96.07-42.61-107.56-16.19-3.93-16.39-4.14-19.13-20.84a113.67 113.67 0 0 0 -225.06 4.65c-1 8.14-.55 16.45-.69 24.68-.2 11.88-4.4 16.47-16.21 17.53-30.78 2.76-51.62 22.54-54.86 52.08-3.14 28.66 18.56 56.79 47.09 61 3.3.48 6.64.72 10 1.06 8.61.89 14.37 7.08 13.85 14.88s-6.75 13.62-15.42 13.37c-26.11-.76-48-10.88-64.59-31.11-40.37-49.14-15.55-122.48 46.3-137.35 1.42-.37 2.89-.87 5.04-1.51z"/><path d="m241.64 390.24v-7.14q0-60.41 0-120.83c0-2-.09-4 .07-6 .66-8.67 6.59-14.62 14.4-14.55s13.57 6 14.19 14.78c.14 2 .06 4 .06 6q0 60.41 0 120.83 0 3.53 0 7.06l1.66.84q12-12.26 24-24.51c2.34-2.38 4.63-4.83 7.16-7 6-5.14 14-5 19.35.14 5.56 5.3 5.85 13.49.65 19.85-1 1.2-2.11 2.29-3.21 3.39q-25.48 25.5-51 51c-9.5 9.47-16.57 9.41-26.16-.16-17.17-17.13-34.37-34.23-51.38-51.52a24.64 24.64 0 0 1 -6-9.34c-1.87-5.91 1.38-12.28 6.74-15.32s12-2.4 17.18 2.55c8.67 8.32 17.11 16.87 25.53 25.44a47.71 47.71 0 0 1 4.31 5.93z"/></svg>